<svg width="688" height="91" viewBox="0 0 688 91" fill="none" xmlns="http://www.w3.org/2000/svg">
<rect width="675" height="91" fill="#DEE1E6"/>
<circle cx="26" cy="26.5" r="5.75" fill="#FF6058" stroke="#E14942" stroke-width="0.5"/>
<circle cx="46" cy="26.5" r="5.75" fill="#FFC130" stroke="#E1A325" stroke-width="0.5"/>
<circle cx="66" cy="26.5" r="5.75" fill="#27CA40" stroke="#3EAF3F" stroke-width="0.5"/>
<g clip-path="url(#clip0_1_29)">
<path d="M87 17.1497C87 12.7314 90.5817 9.14967 95 9.14967H359C363.418 9.14967 367 12.7314 367 17.1497V49.5H87V17.1497Z" fill="white"/>
<rect x="101" y="20.1497" width="18.165" height="18.5357" fill="#C4C4C4"/>
<path d="M133.56 26.6885V27.6828H129.602V26.6885H133.56ZM130.756 24.8589H131.929V32.1373C131.929 32.4688 131.977 32.7174 132.073 32.8831C132.173 33.0455 132.299 33.1549 132.451 33.2112C132.607 33.2642 132.771 33.2907 132.943 33.2907C133.073 33.2907 133.179 33.2841 133.262 33.2709C133.344 33.2543 133.411 33.241 133.46 33.2311L133.699 34.2851C133.62 34.3149 133.508 34.3447 133.366 34.3746C133.223 34.4077 133.043 34.4243 132.824 34.4243C132.493 34.4243 132.168 34.353 131.85 34.2105C131.535 34.068 131.273 33.8509 131.064 33.5592C130.859 33.2675 130.756 32.8996 130.756 32.4555V24.8589ZM135.325 34.3248V26.6885H136.498V34.3248H135.325ZM135.921 25.4157C135.693 25.4157 135.495 25.3379 135.33 25.1821C135.167 25.0263 135.086 24.839 135.086 24.6203C135.086 24.4015 135.167 24.2143 135.33 24.0585C135.495 23.9027 135.693 23.8248 135.921 23.8248C136.15 23.8248 136.346 23.9027 136.508 24.0585C136.674 24.2143 136.757 24.4015 136.757 24.6203C136.757 24.839 136.674 25.0263 136.508 25.1821C136.346 25.3379 136.15 25.4157 135.921 25.4157ZM141.968 26.6885V27.6828H138.011V26.6885H141.968ZM139.164 24.8589H140.337V32.1373C140.337 32.4688 140.385 32.7174 140.482 32.8831C140.581 33.0455 140.707 33.1549 140.859 33.2112C141.015 33.2642 141.179 33.2907 141.352 33.2907C141.481 33.2907 141.587 33.2841 141.67 33.2709C141.753 33.2543 141.819 33.241 141.869 33.2311L142.107 34.2851C142.028 34.3149 141.917 34.3447 141.774 34.3746C141.632 34.4077 141.451 34.4243 141.232 34.4243C140.901 34.4243 140.576 34.353 140.258 34.2105C139.943 34.068 139.681 33.8509 139.472 33.5592C139.267 33.2675 139.164 32.8996 139.164 32.4555V24.8589ZM145.07 24.143V34.3248H143.897V24.143H145.07ZM150.421 34.4839C149.685 34.4839 149.051 34.3215 148.517 33.9967C147.987 33.6686 147.577 33.2112 147.289 32.6246C147.004 32.0346 146.861 31.3485 146.861 30.5663C146.861 29.7841 147.004 29.0947 147.289 28.4981C147.577 27.8982 147.978 27.4309 148.492 27.0961C149.009 26.7581 149.612 26.589 150.302 26.589C150.699 26.589 151.092 26.6553 151.48 26.7879C151.868 26.9205 152.221 27.1359 152.539 27.4342C152.857 27.7292 153.111 28.1203 153.3 28.6075C153.488 29.0947 153.583 29.6946 153.583 30.4072V30.9044H147.697V29.8902H152.39C152.39 29.4593 152.304 29.0748 152.131 28.7368C151.962 28.3987 151.72 28.1319 151.405 27.9363C151.094 27.7408 150.726 27.643 150.302 27.643C149.834 27.643 149.43 27.759 149.089 27.991C148.751 28.2197 148.49 28.518 148.308 28.8859C148.126 29.2538 148.035 29.6482 148.035 30.0692V30.7453C148.035 31.322 148.134 31.8109 148.333 32.2119C148.535 32.6096 148.815 32.9129 149.173 33.1217C149.531 33.3272 149.947 33.43 150.421 33.43C150.729 33.43 151.008 33.3869 151.256 33.3007C151.508 33.2112 151.725 33.0786 151.908 32.903C152.09 32.724 152.231 32.5019 152.33 32.2368L153.464 32.555C153.344 32.9394 153.144 33.2775 152.862 33.5692C152.58 33.8575 152.232 34.0829 151.818 34.2453C151.404 34.4044 150.938 34.4839 150.421 34.4839Z" fill="#5F6368"/>
<rect x="312.5" y="8.14967" width="58" height="42" fill="url(#paint0_linear_1_29)"/>
<path fill-rule="evenodd" clip-rule="evenodd" d="M354.425 25.903L351.229 29.0993L354.425 32.2958C354.777 32.6474 354.777 33.2228 354.425 33.5744C354.073 33.926 353.498 33.9259 353.147 33.5743L349.95 30.3778L346.754 33.5741C346.402 33.9257 345.827 33.9256 345.475 33.574C345.124 33.2224 345.123 32.6471 345.475 32.2955L348.671 29.0992L345.475 25.9026C345.123 25.551 345.123 24.9757 345.475 24.6241C345.826 24.2725 346.402 24.2725 346.753 24.6241L349.95 27.8207L353.146 24.6244C353.498 24.2728 354.073 24.2728 354.425 24.6244C354.776 24.976 354.776 25.5514 354.425 25.903Z" fill="#5F6368"/>
</g>
<path fill-rule="evenodd" clip-rule="evenodd" d="M79.5 49.5012C81.2308 48.3248 85.2692 47.7365 87 39.5012C87 39.5012 87 49.5012 87 49.5012C87 49.5012 79.5 49.5012 79.5 49.5012Z" fill="white"/>
<path fill-rule="evenodd" clip-rule="evenodd" d="M374.75 49.5012C372.904 48.3248 368.596 47.7365 366.75 39.5012C366.75 39.5012 366.75 49.5012 366.75 49.5012C366.75 49.5012 374.75 49.5012 374.75 49.5012Z" fill="white"/>
<path fill-rule="evenodd" clip-rule="evenodd" d="M390.999 29.8239H385.999V34.8239C385.999 35.3739 385.549 35.8239 384.999 35.8239C384.45 35.8239 384 35.3739 384 34.8239V29.8239H379C378.45 29.8239 378 29.3739 378 28.8239C378 28.2739 378.45 27.8239 379 27.8239H384V22.8239C384 22.2739 384.45 21.8239 384.999 21.8239C385.549 21.8239 385.999 22.2739 385.999 22.8239V27.8239H390.999C391.549 27.8239 391.999 28.2739 391.999 28.8239C391.999 29.3739 391.549 29.8239 390.999 29.8239Z" fill="#5D6481"/>
<mask id="path-12-inside-1_1_29" fill="white">
<path d="M0 49H675V91H0V49Z"/>
</mask>
<path d="M0 49H675V91H0V49Z" fill="white"/>
<path d="M675 90H0V92H675V90Z" fill="#DEE1E6" mask="url(#path-12-inside-1_1_29)"/>
<path fill-rule="evenodd" clip-rule="evenodd" d="M34.8449 68.8503H21.9419L27.579 63.2132C28.0295 62.7627 28.0295 62.0234 27.579 61.5729C27.1285 61.1224 26.4008 61.1224 25.9503 61.5729L18.3379 69.1853C17.8874 69.6358 17.8874 70.3635 18.3379 70.814L25.9503 78.4264C26.4008 78.8769 27.1285 78.8769 27.579 78.4264C28.0295 77.9759 28.0295 77.2482 27.579 76.7977L21.9419 71.1606H34.8449C35.4802 71.1606 36 70.6407 36 70.0054C36 69.3701 35.4802 68.8503 34.8449 68.8503Z" fill="#5F6368"/>
<path opacity="0.6" fill-rule="evenodd" clip-rule="evenodd" d="M57.1551 68.8503H70.0581L64.421 63.2132C63.9705 62.7627 63.9705 62.0234 64.421 61.5729C64.8715 61.1224 65.5992 61.1224 66.0497 61.5729L73.6621 69.1853C74.1126 69.6358 74.1126 70.3635 73.6621 70.814L66.0497 78.4264C65.5992 78.8769 64.8715 78.8769 64.421 78.4264C63.9705 77.9759 63.9705 77.2482 64.421 76.7977L70.0581 71.1606H57.1551C56.5198 71.1606 56 70.6407 56 70.0054C56 69.3701 56.5198 68.8503 57.1551 68.8503Z" fill="#5F6368"/>
<path fill-rule="evenodd" clip-rule="evenodd" d="M111.527 67.5633V62.4105C111.527 61.9722 111.001 61.7579 110.699 62.0696L108.966 63.8034C107.203 62.0404 104.69 61.0274 101.944 61.2709C97.8633 61.641 94.5033 64.9236 94.0554 69.0049C93.471 74.2843 97.5906 78.765 102.762 78.765C107.232 78.765 110.923 75.4142 111.459 71.0894C111.527 70.505 111.069 69.9985 110.485 69.9985C109.998 69.9985 109.589 70.3589 109.531 70.8361C109.112 74.2356 106.18 76.8656 102.665 76.8169C99.0515 76.7682 96.0032 73.7194 95.9447 70.0959C95.8863 66.297 98.9736 63.18 102.762 63.18C104.642 63.18 106.346 63.9495 107.583 65.1769L105.547 67.2126C105.236 67.5243 105.45 68.0503 105.888 68.0503H111.04C111.313 68.0503 111.527 67.836 111.527 67.5633Z" fill="#5F6368"/>
<rect x="128.527" y="53" width="528.473" height="34" rx="17" fill="#F1F3F4"/>
<path fill-rule="evenodd" clip-rule="evenodd" d="M151.027 67.6667H150.444V66.5C150.444 64.89 149.137 63.5833 147.527 63.5833C145.917 63.5833 144.61 64.89 144.61 66.5V67.6667H144.027C143.385 67.6667 142.86 68.1917 142.86 68.8333V74.6667C142.86 75.3083 143.385 75.8333 144.027 75.8333H151.027C151.669 75.8333 152.194 75.3083 152.194 74.6667V68.8333C152.194 68.1917 151.669 67.6667 151.027 67.6667ZM145.777 67.6667V66.5C145.777 65.5317 146.559 64.75 147.527 64.75C148.495 64.75 149.277 65.5317 149.277 66.5V67.6667H145.777Z" fill="#5F6368"/>
<path d="M164.618 79.2727C164.391 79.2727 164.188 79.2538 164.01 79.2159C163.832 79.1818 163.709 79.1477 163.641 79.1136L163.982 77.9318C164.307 78.0152 164.595 78.0455 164.845 78.0227C165.095 78 165.317 77.8883 165.51 77.6875C165.707 77.4905 165.887 77.1705 166.05 76.7273L166.3 76.0455L163.073 67.2727H164.527L166.936 74.2273H167.027L169.436 67.2727H170.891L167.186 77.2727C167.02 77.7235 166.813 78.0966 166.567 78.392C166.321 78.6913 166.035 78.9129 165.709 79.0568C165.387 79.2008 165.023 79.2727 164.618 79.2727ZM175.894 76.1818C175.106 76.1818 174.414 75.9943 173.82 75.6193C173.229 75.2443 172.767 74.7197 172.433 74.0455C172.104 73.3712 171.939 72.5833 171.939 71.6818C171.939 70.7727 172.104 69.9792 172.433 69.3011C172.767 68.6231 173.229 68.0966 173.82 67.7216C174.414 67.3466 175.106 67.1591 175.894 67.1591C176.682 67.1591 177.371 67.3466 177.962 67.7216C178.557 68.0966 179.019 68.6231 179.348 69.3011C179.682 69.9792 179.848 70.7727 179.848 71.6818C179.848 72.5833 179.682 73.3712 179.348 74.0455C179.019 74.7197 178.557 75.2443 177.962 75.6193C177.371 75.9943 176.682 76.1818 175.894 76.1818ZM175.894 74.9773C176.492 74.9773 176.985 74.8239 177.371 74.517C177.757 74.2102 178.043 73.8068 178.229 73.3068C178.414 72.8068 178.507 72.2652 178.507 71.6818C178.507 71.0985 178.414 70.5549 178.229 70.0511C178.043 69.5473 177.757 69.1402 177.371 68.8295C176.985 68.5189 176.492 68.3636 175.894 68.3636C175.295 68.3636 174.803 68.5189 174.416 68.8295C174.03 69.1402 173.744 69.5473 173.558 70.0511C173.373 70.5549 173.28 71.0985 173.28 71.6818C173.28 72.2652 173.373 72.8068 173.558 73.3068C173.744 73.8068 174.03 74.2102 174.416 74.517C174.803 74.8239 175.295 74.9773 175.894 74.9773ZM187.395 72.4318V67.2727H188.736V76H187.395V74.5227H187.304C187.1 74.9659 186.781 75.3428 186.35 75.6534C185.918 75.9602 185.372 76.1136 184.713 76.1136C184.168 76.1136 183.683 75.9943 183.259 75.7557C182.834 75.5133 182.501 75.1496 182.259 74.6648C182.016 74.1761 181.895 73.5606 181.895 72.8182V67.2727H183.236V72.7273C183.236 73.3636 183.414 73.8712 183.77 74.25C184.13 74.6288 184.588 74.8182 185.145 74.8182C185.478 74.8182 185.817 74.733 186.162 74.5625C186.511 74.392 186.802 74.1307 187.037 73.7784C187.276 73.4261 187.395 72.9773 187.395 72.4318ZM191.192 76V67.2727H192.487V68.5909H192.578C192.737 68.1591 193.025 67.8087 193.442 67.5398C193.859 67.2708 194.328 67.1364 194.851 67.1364C194.95 67.1364 195.073 67.1383 195.22 67.142C195.368 67.1458 195.48 67.1515 195.556 67.1591V68.5227C195.51 68.5114 195.406 68.4943 195.243 68.4716C195.084 68.4451 194.915 68.4318 194.737 68.4318C194.313 68.4318 193.934 68.5208 193.601 68.6989C193.271 68.8731 193.01 69.1155 192.817 69.4261C192.628 69.733 192.533 70.0833 192.533 70.4773V76H191.192ZM199.263 76L196.604 67.2727H198.013L199.899 73.9545H199.99L201.854 67.2727H203.286L205.127 73.9318H205.218L207.104 67.2727H208.513L205.854 76H204.536L202.627 69.2955H202.49L200.581 76H199.263ZM213.648 76.1818C212.807 76.1818 212.082 75.9962 211.472 75.625C210.866 75.25 210.398 74.7273 210.068 74.0568C209.743 73.3826 209.58 72.5985 209.58 71.7045C209.58 70.8106 209.743 70.0227 210.068 69.3409C210.398 68.6553 210.856 68.1212 211.443 67.7386C212.034 67.3523 212.724 67.1591 213.512 67.1591C213.966 67.1591 214.415 67.2348 214.858 67.3864C215.301 67.5379 215.705 67.7841 216.068 68.125C216.432 68.4621 216.722 68.9091 216.938 69.4659C217.154 70.0227 217.262 70.7083 217.262 71.5227V72.0909H210.534V70.9318H215.898C215.898 70.4394 215.799 70 215.602 69.6136C215.409 69.2273 215.133 68.9223 214.773 68.6989C214.417 68.4754 213.996 68.3636 213.512 68.3636C212.977 68.3636 212.515 68.4962 212.125 68.7614C211.739 69.0227 211.441 69.3636 211.233 69.7841C211.025 70.2045 210.921 70.6553 210.921 71.1364V71.9091C210.921 72.5682 211.034 73.1269 211.262 73.5852C211.493 74.0398 211.813 74.3864 212.222 74.625C212.631 74.8598 213.106 74.9773 213.648 74.9773C214 74.9773 214.318 74.928 214.602 74.8295C214.89 74.7273 215.138 74.5758 215.347 74.375C215.555 74.1705 215.716 73.9167 215.83 73.6136L217.125 73.9773C216.989 74.4167 216.76 74.803 216.438 75.1364C216.116 75.4659 215.718 75.7235 215.244 75.9091C214.771 76.0909 214.239 76.1818 213.648 76.1818ZM219.483 76V64.3636H220.824V68.6591H220.938C221.036 68.5076 221.173 68.3144 221.347 68.0795C221.525 67.8409 221.779 67.6288 222.108 67.4432C222.441 67.2538 222.892 67.1591 223.46 67.1591C224.195 67.1591 224.843 67.3428 225.404 67.7102C225.964 68.0777 226.402 68.5985 226.716 69.2727C227.03 69.947 227.188 70.7424 227.188 71.6591C227.188 72.5833 227.03 73.3845 226.716 74.0625C226.402 74.7367 225.966 75.2595 225.409 75.6307C224.852 75.9981 224.21 76.1818 223.483 76.1818C222.923 76.1818 222.474 76.089 222.137 75.9034C221.799 75.714 221.54 75.5 221.358 75.2614C221.176 75.0189 221.036 74.8182 220.938 74.6591H220.779V76H219.483ZM220.801 71.6364C220.801 72.2955 220.898 72.8769 221.091 73.3807C221.284 73.8807 221.566 74.2727 221.938 74.5568C222.309 74.8371 222.763 74.9773 223.301 74.9773C223.862 74.9773 224.33 74.8295 224.705 74.5341C225.084 74.2348 225.368 73.8333 225.557 73.3295C225.75 72.822 225.847 72.2576 225.847 71.6364C225.847 71.0227 225.752 70.4697 225.563 69.9773C225.377 69.4811 225.095 69.089 224.716 68.8011C224.341 68.5095 223.869 68.3636 223.301 68.3636C222.756 68.3636 222.298 68.5019 221.926 68.7784C221.555 69.0511 221.275 69.4337 221.085 69.9261C220.896 70.4148 220.801 70.9848 220.801 71.6364ZM235.421 69.2273L234.216 69.5682C234.14 69.3674 234.029 69.1723 233.881 68.983C233.737 68.7898 233.54 68.6307 233.29 68.5057C233.04 68.3807 232.72 68.3182 232.33 68.3182C231.796 68.3182 231.351 68.4413 230.994 68.6875C230.642 68.9299 230.466 69.2386 230.466 69.6136C230.466 69.947 230.587 70.2102 230.83 70.4034C231.072 70.5966 231.451 70.7576 231.966 70.8864L233.262 71.2045C234.042 71.3939 234.623 71.6837 235.006 72.0739C235.388 72.4602 235.58 72.9583 235.58 73.5682C235.58 74.0682 235.436 74.5152 235.148 74.9091C234.864 75.303 234.466 75.6136 233.955 75.8409C233.443 76.0682 232.849 76.1818 232.171 76.1818C231.28 76.1818 230.544 75.9886 229.96 75.6023C229.377 75.2159 229.008 74.6515 228.852 73.9091L230.125 73.5909C230.246 74.0606 230.476 74.4129 230.813 74.6477C231.154 74.8826 231.599 75 232.148 75C232.773 75 233.269 74.8674 233.637 74.6023C234.008 74.3333 234.193 74.0114 234.193 73.6364C234.193 73.3333 234.087 73.0795 233.875 72.875C233.663 72.6667 233.337 72.5114 232.898 72.4091L231.443 72.0682C230.644 71.8788 230.057 71.5852 229.682 71.1875C229.311 70.786 229.125 70.2841 229.125 69.6818C229.125 69.1894 229.263 68.7538 229.54 68.375C229.82 67.9962 230.201 67.6989 230.682 67.483C231.167 67.267 231.716 67.1591 232.33 67.1591C233.193 67.1591 233.871 67.3485 234.364 67.7273C234.86 68.1061 235.212 68.6061 235.421 69.2273ZM237.598 76V67.2727H238.939V76H237.598ZM238.28 65.8182C238.019 65.8182 237.793 65.7292 237.604 65.5511C237.418 65.3731 237.325 65.1591 237.325 64.9091C237.325 64.6591 237.418 64.4451 237.604 64.267C237.793 64.089 238.019 64 238.28 64C238.541 64 238.765 64.089 238.95 64.267C239.14 64.4451 239.235 64.6591 239.235 64.9091C239.235 65.1591 239.14 65.3731 238.95 65.5511C238.765 65.7292 238.541 65.8182 238.28 65.8182ZM245.191 67.2727V68.4091H240.668V67.2727H245.191ZM241.986 65.1818H243.327V73.5C243.327 73.8788 243.382 74.1629 243.492 74.3523C243.605 74.5379 243.749 74.6629 243.923 74.7273C244.101 74.7879 244.289 74.8182 244.486 74.8182C244.634 74.8182 244.755 74.8106 244.85 74.7955C244.944 74.7765 245.02 74.7614 245.077 74.75L245.35 75.9545C245.259 75.9886 245.132 76.0227 244.969 76.0568C244.806 76.0947 244.6 76.1136 244.35 76.1136C243.971 76.1136 243.6 76.0322 243.236 75.8693C242.876 75.7064 242.577 75.4583 242.338 75.125C242.103 74.7917 241.986 74.3712 241.986 73.8636V65.1818ZM250.773 76.1818C249.932 76.1818 249.207 75.9962 248.597 75.625C247.991 75.25 247.523 74.7273 247.193 74.0568C246.868 73.3826 246.705 72.5985 246.705 71.7045C246.705 70.8106 246.868 70.0227 247.193 69.3409C247.523 68.6553 247.981 68.1212 248.568 67.7386C249.159 67.3523 249.849 67.1591 250.637 67.1591C251.091 67.1591 251.54 67.2348 251.983 67.3864C252.426 67.5379 252.83 67.7841 253.193 68.125C253.557 68.4621 253.847 68.9091 254.063 69.4659C254.279 70.0227 254.387 70.7083 254.387 71.5227V72.0909H247.659V70.9318H253.023C253.023 70.4394 252.924 70 252.727 69.6136C252.534 69.2273 252.258 68.9223 251.898 68.6989C251.542 68.4754 251.121 68.3636 250.637 68.3636C250.102 68.3636 249.64 68.4962 249.25 68.7614C248.864 69.0227 248.566 69.3636 248.358 69.7841C248.15 70.2045 248.046 70.6553 248.046 71.1364V71.9091C248.046 72.5682 248.159 73.1269 248.387 73.5852C248.618 74.0398 248.938 74.3864 249.347 74.625C249.756 74.8598 250.231 74.9773 250.773 74.9773C251.125 74.9773 251.443 74.928 251.727 74.8295C252.015 74.7273 252.263 74.5758 252.472 74.375C252.68 74.1705 252.841 73.9167 252.955 73.6136L254.25 73.9773C254.114 74.4167 253.885 74.803 253.563 75.1364C253.241 75.4659 252.843 75.7235 252.369 75.9091C251.896 76.0909 251.364 76.1818 250.773 76.1818ZM257.404 76.0909C257.123 76.0909 256.883 75.9905 256.682 75.7898C256.481 75.589 256.381 75.3485 256.381 75.0682C256.381 74.7879 256.481 74.5473 256.682 74.3466C256.883 74.1458 257.123 74.0455 257.404 74.0455C257.684 74.0455 257.924 74.1458 258.125 74.3466C258.326 74.5473 258.426 74.7879 258.426 75.0682C258.426 75.2538 258.379 75.4242 258.284 75.5795C258.193 75.7348 258.07 75.8598 257.915 75.9545C257.763 76.0455 257.593 76.0909 257.404 76.0909ZM264.378 76.1818C263.56 76.1818 262.855 75.9886 262.264 75.6023C261.673 75.2159 261.219 74.6837 260.901 74.0057C260.583 73.3277 260.423 72.553 260.423 71.6818C260.423 70.7955 260.586 70.0133 260.912 69.3352C261.242 68.6534 261.7 68.1212 262.287 67.7386C262.878 67.3523 263.567 67.1591 264.355 67.1591C264.969 67.1591 265.522 67.2727 266.014 67.5C266.507 67.7273 266.91 68.0455 267.225 68.4545C267.539 68.8636 267.734 69.3409 267.81 69.8864H266.469C266.367 69.4886 266.139 69.1364 265.787 68.8295C265.439 68.5189 264.969 68.3636 264.378 68.3636C263.855 68.3636 263.397 68.5 263.003 68.7727C262.613 69.0417 262.308 69.4223 262.088 69.9148C261.872 70.4034 261.764 70.9773 261.764 71.6364C261.764 72.3106 261.87 72.8977 262.083 73.3977C262.298 73.8977 262.601 74.286 262.992 74.5625C263.386 74.839 263.848 74.9773 264.378 74.9773C264.726 74.9773 265.043 74.9167 265.327 74.7955C265.611 74.6742 265.851 74.5 266.048 74.2727C266.245 74.0455 266.386 73.7727 266.469 73.4545H267.81C267.734 73.9697 267.547 74.4337 267.247 74.8466C266.952 75.2557 266.56 75.5814 266.071 75.8239C265.586 76.0625 265.022 76.1818 264.378 76.1818ZM273.316 76.1818C272.528 76.1818 271.836 75.9943 271.242 75.6193C270.651 75.2443 270.189 74.7197 269.855 74.0455C269.526 73.3712 269.361 72.5833 269.361 71.6818C269.361 70.7727 269.526 69.9792 269.855 69.3011C270.189 68.6231 270.651 68.0966 271.242 67.7216C271.836 67.3466 272.528 67.1591 273.316 67.1591C274.103 67.1591 274.793 67.3466 275.384 67.7216C275.978 68.0966 276.441 68.6231 276.77 69.3011C277.103 69.9792 277.27 70.7727 277.27 71.6818C277.27 72.5833 277.103 73.3712 276.77 74.0455C276.441 74.7197 275.978 75.2443 275.384 75.6193C274.793 75.9943 274.103 76.1818 273.316 76.1818ZM273.316 74.9773C273.914 74.9773 274.406 74.8239 274.793 74.517C275.179 74.2102 275.465 73.8068 275.651 73.3068C275.836 72.8068 275.929 72.2652 275.929 71.6818C275.929 71.0985 275.836 70.5549 275.651 70.0511C275.465 69.5473 275.179 69.1402 274.793 68.8295C274.406 68.5189 273.914 68.3636 273.316 68.3636C272.717 68.3636 272.225 68.5189 271.838 68.8295C271.452 69.1402 271.166 69.5473 270.98 70.0511C270.795 70.5549 270.702 71.0985 270.702 71.6818C270.702 72.2652 270.795 72.8068 270.98 73.3068C271.166 73.8068 271.452 74.2102 271.838 74.517C272.225 74.8239 272.717 74.9773 273.316 74.9773ZM279.317 76V67.2727H280.612V68.6364H280.726C280.908 68.1705 281.201 67.8087 281.607 67.5511C282.012 67.2898 282.499 67.1591 283.067 67.1591C283.643 67.1591 284.122 67.2898 284.504 67.5511C284.891 67.8087 285.192 68.1705 285.408 68.6364H285.499C285.722 68.1856 286.057 67.8277 286.504 67.5625C286.951 67.2936 287.487 67.1591 288.112 67.1591C288.893 67.1591 289.531 67.4034 290.027 67.892C290.523 68.3769 290.771 69.1326 290.771 70.1591V76H289.431V70.1591C289.431 69.5152 289.254 69.0549 288.902 68.7784C288.55 68.5019 288.135 68.3636 287.658 68.3636C287.044 68.3636 286.569 68.5492 286.232 68.9205C285.895 69.2879 285.726 69.7538 285.726 70.3182V76H284.362V70.0227C284.362 69.5265 284.201 69.1269 283.879 68.8239C283.557 68.517 283.143 68.3636 282.635 68.3636C282.287 68.3636 281.961 68.4564 281.658 68.642C281.359 68.8277 281.116 69.0852 280.931 69.4148C280.749 69.7405 280.658 70.1174 280.658 70.5455V76H279.317Z" fill="#5F6368"/>
<a href="https://brixagency.com">
<rect fill="black" fill-opacity="0" y="-0.681818" width="129.472" height="19.3636"/>
</a>
<path fill-rule="evenodd" clip-rule="evenodd" d="M645.641 67.6857L641.501 67.3264L639.884 63.5197C639.593 62.8268 638.601 62.8268 638.31 63.5197L636.693 67.335L632.562 67.6857C631.809 67.7456 631.501 68.6865 632.074 69.1827L635.213 71.903L634.272 75.9407C634.101 76.6764 634.897 77.2581 635.547 76.8646L639.097 74.726L642.647 76.8731C643.297 77.2666 644.093 76.6849 643.922 75.9492L642.981 71.903L646.12 69.1827C646.693 68.6865 646.394 67.7456 645.641 67.6857V67.6857ZM639.097 73.1259L635.88 75.0678L636.736 71.4065L633.896 68.9428L637.642 68.6177L639.097 65.1703L640.559 68.6263L644.306 68.9514L641.466 71.415L642.322 75.0763L639.097 73.1259Z" fill="#5F6368"/>
<defs>
<linearGradient id="paint0_linear_1_29" x1="346.519" y1="29.1497" x2="312.5" y2="29.0517" gradientUnits="userSpaceOnUse">
<stop offset="0.452265" stop-color="white"/>
<stop offset="1" stop-color="white" stop-opacity="0"/>
</linearGradient>
<clipPath id="clip0_1_29">
<path d="M87 17.1497C87 12.7314 90.5817 9.14967 95 9.14967H359C363.418 9.14967 367 12.7314 367 17.1497V49.5H87V17.1497Z" fill="white"/>
</clipPath>
</defs>
</svg>
